<svg xmlns="http://www.w3.org/2000/svg" width="512" height="512" viewBox="0 0 135.47 135.47"><path fill="#5a89cf" d="M67.73 130.43c27.48 0 42.75 0 52.73-9.97 9.97-9.98 9.97-25.25 9.97-52.73 0-27.47 0-42.75-9.97-52.72-9.98-9.98-25.25-9.98-52.73-9.98-27.47 0-42.75 0-52.72 9.98-9.98 9.97-9.98 25.25-9.98 52.72 0 27.48 0 42.75 9.98 52.73 9.97 9.97 25.25 9.97 52.72 9.97z"/><path d="M20.91 24.68h12.5q5.98 0 9.37 2.82 3.4 2.83 3.4 7.8 0 3.67-2.1 6-2.03 2.3-5.53 2.6v.39q3.9.28 6.1 2.77 2.26 2.48 2.26 6.72 0 5.37-3.5 8.48-3.45 3.1-9.5 3.1h-13zm6.1 22.38V60h6.45q3.33 0 5.2-1.7 1.86-1.75 1.86-4.8 0-3.05-1.86-4.75-1.87-1.7-5.2-1.7zm6.34-5.2q2.93 0 4.69-1.59 1.75-1.63 1.75-4.35 0-2.7-1.75-4.3-1.7-1.63-4.7-1.63h-6.32v11.87zm21.53 23.51v-40.7h6.21v16.68h12.27V24.68h6.21v40.69h-6.21V47.06H61.09v18.3zm32.77-10.63h6.39q.11 2.66 2.03 4.18 1.93 1.53 5.15 1.53 3.39 0 5.2-1.47 1.86-1.53 1.86-4.13 0-2.26-1.36-3.95-1.35-1.7-3.73-2.49l-4.63-1.47q-4.97-1.47-7.46-4.46-2.49-3-2.49-7.35 0-2.48.85-4.52.9-2.03 2.54-3.45 1.7-1.47 4.02-2.26 2.37-.79 5.25-.79 2.83 0 5.15.8 2.31.73 3.95 2.2 1.64 1.41 2.6 3.44.96 2.04 1.02 4.53h-6.39q-.05-2.55-1.8-4.02-1.76-1.52-4.64-1.52-2.88 0-4.63 1.46-1.7 1.4-1.7 3.95 0 2.04 1.24 3.56 1.3 1.47 4.02 2.32l4.86 1.53q4.69 1.46 7.12 4.57 2.48 3.11 2.48 7.63 0 2.6-.96 4.7-.9 2.08-2.65 3.55-1.76 1.47-4.24 2.32-2.49.8-5.6.8-2.94 0-5.42-.8-2.43-.8-4.24-2.26-1.75-1.47-2.77-3.5-.96-2.1-1.02-4.64zm-49.84 50.39V99.2l16.9-7.8q.73-.34 1.41-.56.68-.23 1.19-.34.62-.12 1.18-.17v-.45q-.56-.06-1.18-.17-.51-.12-1.19-.34-.68-.23-1.41-.51l-16.9-7.97v-5.88l24.87 11.81v6.45zm32.78.74H97.7v5.48H70.6z" fill="#fff" fill-opacity=".9"/></svg>
